<?xml version="1.0" encoding="UTF-8"?><svg xmlns="http://www.w3.org/2000/svg" viewBox="0 0 512 512"><defs><style>.cls-1 {fill: #f97065;}.cls-2 {fill: #212826;}.cls-3 {fill: #e24947;}.cls-4 {fill: #f88373;}.cls-5 {fill: #cf2e30;}.cls-6 {fill: #fefefe;}</style></defs><path class="cls-3" d="M313.47,353.14c-12.09,9.17-26.05,13.71-40.72,16.5-5.51,1.05-11.05,1.74-16.67,1.15-2.06-2.04-2.1-4.71-2.1-7.31.02-39.13-.29-78.26.14-117.39-.32-15.88.11-31.77-.23-47.65-.03-1.52-.09-3.07,1.11-4.28,6.83-.95,13.64-.63,20.49.09,4.07.42,8.34,1.97,12.27-.72,3.6-1.85,6.01.57,8.58,2.4,3.79.8,7.59,1.55,11.36,2.4,14.09,3.2,28.06,6.81,41.12,13.21,3.61,1.77,7.5,3.2,10.27,6.38.55,1.02,1.84.8,2.57,1.52h0c13.17,3.79,21.71,12.71,27.36,24.83,1.32,3.17,2.64,6.34,3.96,9.51,3.73,8.48.34,15.23-5.22,21.44-3.51,4.49-7.01,8.99-10.52,13.48-3.54,6.17-8.26,11.47-12.86,16.8-2.2,2.55-1.39,3.94.34,5.76-3.44,1.79-7.54.29-10.95,2.22-.37.52-1.28.48-1.37,1.3.04.86.08,1.71.12,2.57-4.32,4.96-8.28,10.24-13.14,14.73-1.88,1.73-3.64,3.64-6.44,3.78-.05.82-.1,1.64-.15,2.46-4.39,5.05-9.09,9.78-14.15,14.16-1.36-.07-2.72-.14-4.08-.21-.38.26-.74.55-1.08.87Z"/><path class="cls-1" d="M255.97,245.56c.04,41.75.07,83.49.11,125.24-21.6,0-41.44-5.58-58.96-18.56-8.12-1.73-12.84-7.83-17.66-13.81-.05-1.63-.77-2.59-2.53-2.49-7.3-4.78-13.73-10.39-17.4-18.58.32-2.98-2.63-3.29-3.99-4.89-1.9-2.77-3.06-5.92-2.91-9.19.51-10.93.92-21.92,4.18-32.48.77-2.48.6-4.67-.31-6.95-1.92-4.81-1.73-9.84-1.21-14.82.67-6.45,4.13-9.71,10.51-10.41,1.95-.21,3.98-.41,5.84.14,19.59,5.78,39.68,2.92,59.57,3.56,4.34.14,8.69-.14,13.02.11,4.1.23,8.29.35,11.73,3.14Z"/><path class="cls-3" d="M351.24,125.44c1.45.34,2.78.89,4.18-.48,2.94-2.88,6.11-5.53,9.09-8.37,2.99-2.86,2.92-2.9.07-6.21-9.79-11.38-20.04-22.31-31.76-31.75-.83-.67-1.55-1.46-2.52-2.37,2.61-2.38,5.52-2.52,8.58-2.7,14.43-.86,27.29,3.93,39.45,10.98,5.62,3.26,11.02,6.92,15.82,11.4,13.21,12.32,23.91,26.32,29.45,43.82,1.37,4.33,2.39,8.71,2.86,13.23.22,5.07-1.86,6.41-7.06,5.92-15.23-1.45-31,11.21-35.21,24.57,12.55-8.21,24.41-5.65,30.98,4.73.96,6.5,2.31,12.98.68,19.56-.58.65-1.29,1.25-2.15,1.3-11.92.67-23.31-1.6-34.22-6.36-.59-.26-.76-1-1.02-1.59.02-3.04.07-6.03,1.27-8.94,1.11-2.68.31-4.51-2.81-5.2-19.58-4.31-33.12-16.92-44.36-32.62-2.5-3.49-6.09-6.19-7.62-10.39,3.04-1.48,5.62-3.28,7.93-6.02,3.77-4.48,9.19-7.05,14.43-9.65,1.46-.72,3.53-.65,3.94-2.85Z"/><path class="cls-4" d="M255.97,245.56c-22.43-2.53-44.95-.72-67.42-1.28-4.96-.12-9.6-1.97-14.31-3.23-3.27-.88-6.45-.74-9.62-.59-4.62.23-7.34,3.26-7.6,8.05-.2,3.68.07,7.39-.08,11.08-.08,1.99,1.04,3.19,2.1,4.56,1.74,2.25,2.18,4.72.18,6.99-3.09,3.51-4.52,7.05-2.41,11.79.78,1.75.7,4.73-.31,6.3-3.79,5.94-2.2,12.02-1.2,18.09.29,1.75.3,3.42.24,5.14-.42-.05-.81-.18-1.18-.39-8.91-5.98-14.99-14.5-20.81-23.24-1.37-3.53-6.34-10.73-9.24-13.39-6.95-6.51-9.38-14.56-6.56-21.74,1.74-3.38,4.22-6.48,3.98-10.61,6-10.97,14.91-18.83,25.95-24.42,4.24-.37,7.72-2.82,11.13-4.85,13.46-8.03,28.35-11.76,43.36-15.2,4.58-1.05,9.22-1.81,13.83-2.71,2.1-1.79,4.38-2.66,7.08-1.39,7.05.2,14.07.31,21.11-.8,3.51-.55,7.25-.79,10.8.43.21,2.09,1.13,3.99,1.11,6.21-.15,15.06-.11,30.12-.13,45.19Z"/><path class="cls-3" d="M180.43,151.51c-7.76,13.38-18.57,23.67-32.17,30.85-4.48,2.36-9.53,3.69-14.39,5.25-2.29.74-3.24,1.46-2.16,4.07,1.16,2.82.73,5.95.66,8.97.71,3.13-1.91,3.72-3.74,4.19-10,2.55-20.12,4.51-30.44,5.22-.87.06-1.64-.46-2.32-1.02-1.53-5.53-2.03-11.2.13-16.53,1.3-3.21.11-4.7-1.98-6.56-7.46-6.65-10.05-15.29-9.87-25,.02-1.08.11-2.16.97-2.98,5.7-4.17,11.93-3.53,18.01-1.48,6.81,2.3,13.03,5.7,18.21,10.97,3.77,3.84,5.19,3.46,6.4-1.59,3.85-16.04,10.99-31.14,13.39-47.58.23-1.57.31-3.69,2.92-3.41,5.38,3.23,9.33,8.18,14.26,11.95,8.09,1.12,14.68,5.23,20.17,10.94,3.7,3.85,4.99,8.64,1.95,13.74Z"/><path class="cls-1" d="M144.05,114.87c-.44.44-1.26.88-1.26,1.32-.1,9.84-3.93,18.78-6.67,27.96-2.38,7.98-5.17,15.81-7.06,23.96-1.58,6.81-2.85,7.12-7.45,2.1-4.18-4.56-9.04-7.92-14.6-10.49-6.26-2.9-12.56-4.26-19.3-1.79-.76.28-1.72.03-2.58.03-.4-13.04,4.64-24.53,10.57-35.64,2.41-4.51,5.03-9.05,8.89-12.61.61-.34,1.13-.77,1.51-1.37l-.06.06c.87-.51.58-1.77,1.46-2.26.09-.86.54-1.41,1.4-1.59,7.02-5.28,15.64-6.52,23.73-7.28,5.48-.52,11.54,2.44,17.23,4.21,1.96.61,1.73,2.71.65,4.39h0c-1.81,1.67-3.6,3.37-5.19,5.28l.02-.05c-.64.41-1.1.96-1.32,1.7.01.69.02,1.38.04,2.06Z"/><path class="cls-5" d="M318.63,352.48c2.27-5.91,7.9-8.89,11.77-13.42.46-.53,1.57-.51,2.38-.74,11.88,4.63,23.78,9.22,35.63,13.92,2,.79,3.98,1.8,5.69,3.09,2.21,1.67,4.64,3.47,3.62,6.93-.27.92-.05,1.83.65,2.37,4.34,3.34,3.54,8.37,3.26,12.55-1.19,17.65-6.44,33.98-17.79,47.92-4.14,5.09-8.8,9.66-14.98,12.23-4.29,1.78-6.25.16-5.36-4.47.36-1.87,1.08-3.82,2.14-5.39,5.21-7.69,7.53-16.39,9.83-25.24,2.81-10.85,6.22-21.56,11.57-31.83-17.09-4.41-32.71-11.26-48.39-17.93Z"/><path class="cls-3" d="M40.86,360.54c-4.31-6.56-3.13-13.75-1.61-20.59,4.08-18.37,14.46-33.03,28.18-45.5,1.1-1,2.42-2.23,3.76-2.41,3.79-.5,6.75-1.67,8.19-5.62.41-1.13,1.95-1.72,3.32-1.69,3.84.08,7.76-.76,11.47.95,4.75,2.84,10.73,3.21,14.79,7.42,1.9,1.96,4.83,3.69,1.48,6.81-.2.18-.15.39.67.54,2.16.37,3.85,1.24,3.47,3.74-.42,2.76-2.61,2.29-4.57,2.16-1.28-.08-2.59-.22-3.82.36-6.69-.15-13.39-.93-19.69-2.93-3.68-1.17-5.33-.62-7.42,2.27-8.2,11.36-16.01,22.97-23.37,34.89-.89,1.44-1.42,3.18-3.19,3.91-.38.47-.75.95-1.1,1.44l.08-.04c-3.78,3.38-6.78,7.05-6.68,12.65.04,2.15-1.14,4.74-3.98,1.66Z"/><path class="cls-5" d="M332.93,335.86c4.92-4.64,10.26-8.83,14.03-14.64,1.2-1.85,2.75-3.96,5.55-3.87,17.2.98,34.37,2.32,51.49,4.2,5.23.58,10.65,1.6,10.97,8.69.11,2.4,3.77,2.52,3.3,5.26-2.27,2.55-6.12,2.07-8.48,4.47-.5.35-1.05.6-1.62.8-.3.02-.6.04-.91.06-10.87-.44-21.74-.89-32.61-1.33-2.54-1.3-5.39.07-7.97-.91-9.6-.51-19.2-1.06-28.81-1.51-1.77-.08-3.33-.67-4.94-1.23Z"/><path class="cls-5" d="M364.71,311.27c-1.66-.92-4.47.73-5.19-1.44-.67-2.02,1.95-3.04,3.11-4.51,3.99-5.07,8.08-10.07,11.96-15.22.79-1.04,1.55-1.33,2.64-1.4,6.52.75,12.9-.79,19.26-1.61,9.41-1.21,18.84-2.03,28.27-2.92,3.72-.35,7.03.64,8.75,4.1,1.14,2.29,2.73,3.06,4.97,3.25-2.19,3.94-4.06,8.1-7.7,11.01-7.23,1.14-14.44,2.47-21.7,3.38-14.78,1.87-29.49,4.36-44.38,5.36Z"/><path class="cls-5" d="M159.53,317.36c5.8,6.19,11.6,12.39,17.4,18.58-1.59,2.06-3.83.56-5.71,1.05-.41.45-.84.49-1.32.1-3.06.21-6.11.42-9.17.62-7.76.66-15.62-.13-23.3,1.65-10.87.43-21.7,1.81-32.6,1.46-.23-.16-.46-.32-.71-.48-.41-.41-.79-.85-1.15-1.3-3.31-3.99-7.9-.85-11.69-2.11.58-1.96,1.73-3.47,3.53-4.47,1.17-.65,2.19-1.36,2.12-2.95-.21-4.86,3.25-6.31,7-7,8.51-1.55,17.11-2.76,25.77-2.59,7.11.14,13.98-2.21,21.13-1.52,2.9.28,6.04,1.21,8.7-1.07Z"/><path class="cls-3" d="M91.29,336.95c3.47-1.74,7.03-2.51,10.85-1.18,1.89.66,2.8,1.9,2.68,3.9-.34.31-.44.6-.3.87.13.26.26.4.39.4l-.08-.1c-.06,7.12-1.79,14.02-2.84,21-1.96,13.03-2.58,26.17-3.86,39.25.23,6-2.01,11.96-.06,18.03.38,1.2-.07,3.21-2.42,2.82-6.62-4.63-9.31-11.83-11.54-18.98-4.57-14.61-3.9-29.5-.82-44.32,1.58-7.6,3.72-15.05,8-21.67Z"/><path class="cls-5" d="M378.47,201.11c6.9,2.82,14.28,3.71,21.47,5.35,5.28,1.2,10.57,1.37,15.91,1.3.24.98.16,1.91-.45,2.74.22.46.14.85-.3,1.13-.86,7.35-4.55,13.3-9.28,18.7-4.85,5.55-10.97,9.58-16.82,13.94-2.65-3.3-5.28-6.61-7.95-9.9-5.29-6.51-12.29-10.81-19.41-14.93,2.82.17,3.43-2.29,4.37-4.01,3.11-5.73,7.47-10.29,12.46-14.33Z"/><path class="cls-3" d="M408.46,339.88c2.02-4.26,6.03-4.04,9.8-4.37,2.06-.28,2.58,1.45,3.12,2.73,8.47,20.16,12.51,40.91,6.66,62.52-2.13,7.87-5.37,15.48-11.77,21.13-3.82,1.21-3.38-1.42-3.01-3.56,1.98-11.47-.74-22.83-.65-34.25-1.98-14.39-4.28-28.74-5.34-43.24l-.09.09c.43-.36.86-.7,1.29-1.05Z"/><path class="cls-5" d="M95.88,209.04c6.38-1.52,12.92-2.06,19.34-3.52,5.09-1.16,10.49-1.32,15.56-3.09.94-.33,1.37-.92,1.59-1.79,6.08,5.18,11.41,11,15.31,18.03-1.08,3.51-4.81,3.91-7.19,5.85-5.89,4.82-11.48,9.79-15.86,16.06-.73,1.05-1.59,2.07-2.91,2.51-11.98-6.57-20.66-15.97-25.23-29.05-.6-1.71-.9-3.28-.63-5.01Z"/><path class="cls-3" d="M430.78,302.53c1.58-4.37,3.42-8.55,7.7-11.01,4.83.9,7.74,4.71,10.82,7.84,12.42,12.64,21.26,27.37,23.99,45.18.93,6.05.14,12.02-3.41,17.31-3.64,1.55-3.85-1.5-4.37-3.54-1.11-4.34-2.65-8.42-5.29-12.06-3.82-2.77-5.44-7.15-7.82-10.94-6.19-9.84-12.36-19.67-19.41-28.93-.9-1.18-2.12-2.19-2.2-3.85Z"/><path class="cls-3" d="M154.1,431.13c-1.67-.2-2.64-1.46-3.59-2.58-13.55-15.88-20.54-34.25-20.63-55.19-.01-2.79.01-5.62,2.18-7.83,3.63.88,7.29-.08,10.91.17,2.12.15,5.49.48,2.31,4.06.13,1.06-.02,2.26.44,3.15,6.43,12.39,9.43,25.89,12.68,39.31.45,1.88.82,3.77,1.23,5.66,2.04,3.48,1.17,7.04.21,10.55-.82,3.02-2.66,4.28-5.73,2.7Z"/><path class="cls-5" d="M180.43,151.51c1.32-9.25-3.05-14.79-11.11-18.76-3.69-1.82-7.86-3-11.01-5.93,9-7.45,19.1-13.57,26.9-22.44,4.13-4.7,8.2-9.44,12.63-14.54,2.43,2.47,2.79,5.49,2.83,8.32.25,17.14-3.59,32.99-14.97,46.43-1.87,2.2-2.14,5.66-5.28,6.93Z"/><path class="cls-5" d="M351.24,125.44c-1.58.96,4.48,1.32.13,2.74-6.09,1.98-11.14,5.99-16.53,9.33-1.15.71-1.61,1.89-2.24,3.02-2.4,4.33-2.45,4.31-7.66,3.43l-.04-.12c-.53-.74-.02-2.15-1.47-2.29l-.07-.15c.19-.86-.37-1.16-1.02-1.4l-.02-.04c-.26-.55-.61-1.02-1.06-1.42-8.16-12.63-11.38-26.5-10.28-41.43.11-1.5.45-3,.86-4.45.88-3.12,1.63-3.42,3.57-.92,10.17,13.14,22.81,23.61,35.83,33.69Z"/><path class="cls-3" d="M150.5,105.88c-.15-2.09.22-5.2-3.26-3.53-2.64,1.27-3.53-3.06-6.33-1.03-2.74,1.99-3.89-1.01-5.47-2.74-1.04-1.14-2.84-.87-4.22-.05-1.27.75-2.17,2.29-3.9,2.04-6.65-.97-12.14,3.39-18.44,3.98,4.46-4.26,7.64-10.02,14.1-11.9l.22.24-.24-.22c2.41-4.4,6.94-6.27,10.91-8.54,11.58-6.62,23.88-11.05,37.52-10.54,3.46.13,6.73.7,10.22,3.41-1.01.69-1.9,1.32-2.81,1.93-10.27,6.88-18.36,16.02-26.36,25.27-.55.64-1.29,1.12-1.94,1.67Z"/><path class="cls-5" d="M145.27,369.76c-.31-.88,2.1-2.56-.63-2.66-2.09-.07-4.18-.27-6.29.73-2.6,1.23-5.04.79-6.29-2.3.36-.52,1.04-1.04,1.05-1.57.14-7.51,5.53-10.04,11.35-12.24,11.67-4.41,23.33-8.86,35-13.29,3.21,1.9,6.02,4.34,8.57,7.01,2.68,2.8,5.79,4.89,9.09,6.8-11.71,4.27-23.4,8.6-35.14,12.77-5.46,1.94-10.91,3.96-16.7,4.76Z"/><path class="cls-3" d="M30.83,294.01c3.32-8.6,8.81-15.78,15.18-22.24,6.05-6.15,12.4-12.02,19.9-16.46,3.58-2.13,7.25-3.82,11.58-3.08.93,4.3,2.72,8.51,1.3,13.04-1.21,2.85-4.1,3.77-6.34,5.37-10.12,7.21-18.66,16.18-27.81,24.48-1.71,1.55-2.94,3.82-5.57,4.16-4.06.31-7.31-.65-8.24-5.26Z"/><path class="cls-5" d="M415.17,188.19c-1.79-1.15-3.96-1.98-5.3-3.53-3.71-4.3-8.43-4.76-13.53-4.38-4.91.36-8.92,2.61-12.31,6.02-.72.72-.95,2.14-2.31,1.13-.78-.58-.51-1.6-.31-2.42,1.17-4.86,3.21-9.21,6.99-12.65,2.39-2.19,4.72-4.47,6.87-6.9,2.22-2.5,4.92-4.34,8-5.26,6.22-1.86,12.31-5.13,19.16-2.37,1.55.63,3.04.23,3.08-1.99.02-1.05-.19-2.19.96-2.87.38,4.66,1.21,9.25.6,14.03-1.11,8.78-4.91,15.83-11.89,21.19Z"/><path class="cls-3" d="M434.62,252.16c7.41-.67,12.7,3.84,17.92,7.89,9.77,7.6,18.4,16.39,25.1,26.91,1.26,1.97,2.75,3.91,2.73,6.46,2.36,6.69-3.95,5.15-6.65,7.03-8.73-7.79-17.43-15.63-26.22-23.35-3.58-3.15-7.35-6.1-11.12-9.02-1.21-.94-2.54-1.66-2.98-3.26-1.76-2.95,1.03-6.52-1.63-9.65-1.22-1.44.89-2.88,2.85-3.01Z"/><path class="cls-5" d="M78.78,265.27c0-.42.09-.86-.03-1.25q-2.04-6.72-1.27-11.8c1.8-3.33,4.6-4.29,8.22-3.69,8.54,1.41,17.1,2.71,25.66,4.07,2.13.34,4.26.73,6.39,1.1-.31,7.37,1.55,14.05,6.22,19.87.35.43.24,1.24.34,1.87-15.34-2.67-30.79-4.81-45.53-10.18Z"/><path class="cls-5" d="M434.62,252.16c-.32,1.39-5.6,3,.28,4.16,1.42.28,1.07,1.98.61,3.27-.63,1.77-2.32,3.12-2.1,5.23-14.98,4.53-30.32,7.44-45.65,10.41.25-.8.35-1.69.76-2.4,3.44-5.9,5.1-12.19,4.46-19.04,8.43-1.46,16.85-2.94,25.28-4.39,2.32-.4,4.66-.67,6.97-1.09,3.97-.72,7.21.27,9.4,3.85Z"/><path class="cls-5" d="M106.21,306.71c1.67-2.14,4.04-.61,6.02-1.11.96-.24,1.53-.68,1.59-1.66.08-1.26-.45-2.08-1.78-2.11-1.94-.05-3.89.07-5.81-.1-1.29-.11-3.51.89-3.48-1.43.02-1.7,1.99-.99,3.14-1.14.63-.09,1.3.05,1.94-.03,1.17-.14,2.86.57,3.16-1.25.24-1.43-1.06-2.49-2.1-2.97-3.56-1.65-6.21-4.9-10.39-5.57-1.76-.28-4.57-.44-4.32-3.63.3.06.6.08.9.06,1.14-.17,2.29-.54,3.35.27,9.01-.48,17.78,1.81,26.71,2.36,2.8.17,5.6.31,8.4.47,3.73,1.98,5.45,5.85,8.15,8.79,4.33,4.72,8.45,9.63,12.66,14.46-9.95-.06-19.76-1.65-29.59-2.9-6.19-.79-12.49-.83-18.56-2.47Z"/><path class="cls-2" d="M223.08,194.53c-2.38.37-4.59,1.56-7.08,1.39-1.47-1.87-3.9-1.51-5.8-2.5-8.56-4.47-11.84-14.38-7.3-22.63,4.38-7.97,14.65-10.88,22.42-6.16,8.67,5.27,11.99,19.12,1.95,26.99-1.34,1.05-2.8,1.95-4.2,2.92Z"/><path class="cls-2" d="M296.33,195.94c-3.23.54-5.62-1.96-8.58-2.4-12.62-5.37-11.31-21.58-3.82-27.56,7.21-5.75,17.33-4.62,23.09,2.8,5.92,7.63,4.65,17.27-2.81,23.07-2.43,1.88-5.59,2.1-7.88,4.1Z"/><path class="cls-5" d="M412.6,384.08c2.29,1.6,1.05,3.94,1.09,5.91.13,5.73-.03,11.33,2.18,16.93,1.53,3.89,1.14,8.4-1.35,12.3-1.3,2.03-.18,2.66,1.74,2.67-.35.52-.65,1.08-1.06,1.54-2.21,2.5-5.53,5.34-8.14,4.06-3-1.47-.48-5.33.11-8.12.31-1.47.62-2.96,1.17-4.34,3.98-9.97,5.15-20.31,4.26-30.95Z"/><path class="cls-5" d="M95.65,421.93c2.22-1.01,1.79-3.25,1.01-4.36-2.91-4.1-1.45-7.98.05-11.89.58-1.52-.6-3.57,1.43-4.6,3.52,6.91,5.53,14.33,7.42,21.79.37,1.44.92,3.11-.55,4.14-1.36.95-2.92.24-4.25-.42-2.13-1.05-3.97-2.48-5.1-4.66Z"/><path class="cls-5" d="M40.86,360.54c.91-.21,2.35,2.07,2.71-.52.17-1.25,0-2.55,0-3.82.02-5.66,1.75-7.82,7.95-9.96.02,6.95-.8,13.83-1.53,20.72-.3,2.81-1.49,3.28-3.72,1.43-2.52-2.08-4.25-4.78-5.41-7.84Z"/><path class="cls-5" d="M154.1,431.13c2.15-.06,4.59.24,4.16-3.18-.44-3.48,1.9-6.58,1.36-10.07,3.67,4.3,6.4,9.14,8.27,14.48.66,1.9,1.19,3.89-.64,5.34-1.64,1.3-3.44.19-4.83-.59-2.99-1.65-6.15-3.15-8.32-5.99Z"/><path class="cls-5" d="M30.83,294.01c2.06,2.83,5.54,3.44,8.24,5.26-3.69,4.68-5.87,10.26-9.36,16.11-4.31-7.92-2.91-14.7,1.12-21.37Z"/><path class="cls-5" d="M473.72,300.45c.83-1.74,2.24-3.98,3.84-3.6,4.08.98,2.36-1.95,2.81-3.44,4.46,6.77,6.12,13.75,1.62,22.34-2.64-5.92-5.43-10.63-8.27-15.3Z"/><path class="cls-5" d="M460.22,346.25c5.39,2.35,6.5,7.2,6.96,12.29.17,1.91.24,3.47,2.7,3.3-.67,2.33-2.02,4.29-3.7,5.94-.86.85-2.28,1.74-3.34,1.62-1.44-.17-1.38-1.95-1.46-3.18-.43-6.66-.78-13.32-1.16-19.98Z"/><path class="cls-3" d="M137.43,339.37c1.12-1.42,2.86-2.27,4.36-2.22,6.31.22,12.67-1.03,18.94.57-7.72,1.28-15.48,1.86-23.3,1.65Z"/><path class="cls-3" d="M145.32,111.16c.1-3.37,1.86-5.09,5.19-5.28-1.03,2.45-2.55,4.41-5.19,5.28Z"/><path class="cls-1" d="M366.68,338.6c2.71-.14,5.52-1.25,7.97.91-2.71.13-5.46.69-7.97-.91Z"/><path class="cls-3" d="M98.43,286.01l-3.35-.27c1.2-1.04,2.32-1,3.35.27Z"/><path class="cls-5" d="M352.39,314.79c-1.31-2.3,1.04-.74,1.37-1.3-.18.72-.66,1.14-1.37,1.3Z"/><path class="cls-3" d="M323.44,141.55c2.08-.26,1.57,1.15,1.47,2.29-1.12-.36-1.38-1.27-1.47-2.29Z"/><path class="cls-5" d="M361.65,219.45c-1.12-.06-2.37.11-2.57-1.52,1,.26,2.11.33,2.57,1.52Z"/><path class="cls-5" d="M313.47,353.14c.27-.4-.35-1.91,1.08-.87-.23.45-.23,1.19-1.08.87Z"/><path class="cls-3" d="M107.49,106.15c-.16.96-.08,2.08-1.46,2.26.02-1.05.36-1.9,1.46-2.26Z"/><path class="cls-3" d="M106.09,108.35c-.12.88-.65,1.3-1.51,1.37.27-.71.66-1.3,1.51-1.37Z"/><path class="cls-3" d="M169.9,337.1c.44-.03.88-.07,1.32-.1-.39.71-.83.72-1.32.1Z"/><path class="cls-3" d="M322.35,140c.94.02,1.36.43,1.02,1.4-.79-.13-.99-.7-1.02-1.4Z"/><path class="cls-5" d="M51.44,346.28c.04-.73.4-1.22,1.1-1.44,0,.76-.31,1.29-1.1,1.44Z"/><path class="cls-3" d="M415.11,211.63c-.08-.43.02-.8.3-1.13.46.21.52.49.15.84-.13.12-.3.19-.45.29Z"/><path class="cls-3" d="M321.26,138.53c.77.16,1.16.61,1.06,1.42-.75-.17-1.08-.66-1.06-1.42Z"/><path class="cls-3" d="M144.02,112.81c-.01-.92.34-1.55,1.32-1.7-.02.9-.61,1.34-1.32,1.7Z"/><path class="cls-1" d="M342.61,300.45c-3.12-.05-4.56-1.37-4.44-4.11.1-2.5,2.75-5.19,4.89-4.96,1.76.19,4.35,3.65,4.16,5.84-.25,2.78-2.23,3.35-4.61,3.23Z"/><path class="cls-1" d="M336.67,271.77c-.13,1.57-2.94,3.91-4.57,3.8-2-.13-4.58-2.94-4.26-4.82.46-2.75,2.54-3.08,4.82-2.96,2.07.11,4.17,2.19,4.02,3.98Z"/><path class="cls-1" d="M309.49,323.76c.32,2.79-1.62,2.86-3.74,2.84-2.63-.03-4.06-1.21-4.07-3.91-.01-2.61,1.43-4.01,4.03-3.94,2.76.07,3.9,1.53,3.78,5.01Z"/><path class="cls-5" d="M326.18,226.15c-.65,2.26-2.41,2.55-4.47,2.39-1.04-.08-1.87-.84-1.52-1.54.83-1.66,1.89-3.56,4.16-3.28.93.11,1.79,1.1,1.83,2.43Z"/><path class="cls-4" d="M172.43,295.29c.05,2.17-2.63,5.05-4.79,5.16-2.56.13-4.05-1.21-4.14-3.72-.09-2.47,2.29-5.34,4.48-5.39,1.63-.04,4.43,2.44,4.46,3.96Z"/><path class="cls-4" d="M209.08,323.47c-.09,1.72-2.93,4.75-4.14,4.14-2.07-1.04-4.01-2.53-4.69-4.89-.39-1.34,2.74-3.99,4.37-3.96,1.92.04,4.57,2.83,4.46,4.71Z"/><path class="cls-4" d="M178.05,269.1c2.51.12,3.87,1.7,3.69,4.26-.17,2.48-1.71,3.99-3.85,4.61-1.58.46-4.04-2.88-3.99-5.07.05-2.56,1.55-3.92,4.15-3.8Z"/><path class="cls-5" d="M187.74,228.5c-1.3,0-1.99-.69-1.94-1.96.06-1.27.83-1.9,2.1-1.81.97.06,1.53.62,1.59,1.61.08,1.26-.48,2.02-1.75,2.16Z"/><path class="cls-5" d="M101.97,295.04c-.33,1.44-1.17,1.45-2.03,1.41-1.09-.05-1.6-.84-1.27-1.68.33-.83,1.34-.96,2.21-.7.61.18,1.19.48,1.09.97Z"/><path class="cls-6" d="M408.46,339.88c-.21.62-.22,1.49-1.29,1.05-.15-1.07.62-.99,1.29-1.05Z"/><path class="cls-6" d="M104.92,340.93c-.3-.04-.81,0-.86-.13-.23-.65.27-.91.77-1.13.03.42.06.84.09,1.27Z"/><path class="cls-1" d="M122.96,92.68c.89.24,2.15-.13,2.36,1.29.1.72-.33,1.16-1.05,1.05-1.43-.21-1.05-1.47-1.29-2.36l-.02.02Z"/><path class="cls-3" d="M143.87,361.11c-.14,1.19-.57,1.72-1.55,1.95-2.07.47-3.68-.59-5.28-1.53-.75-.44-1-1.62.08-1.94,1.99-.6,4.11-.75,6.08.17.41.19.52,1.02.67,1.35Z"/><polygon class="cls-3" points="82.31 261.95 81.89 262.11 81.94 261.71 82.31 261.95"/><path class="cls-6" d="M217.15,183.31c-2.42.12-5.1-2.16-5.27-4.48-.17-2.34,2.11-4.83,4.65-5.05,3.33-.3,5.88,1.54,5.92,4.27.04,2.79-2.29,5.11-5.3,5.26Z"/><path class="cls-6" d="M299.47,178.62c-.1,2.4-2.61,4.46-5.46,4.49-2.89.03-4.66-2.72-4.41-4.9.24-2.15,2.04-4.27,4.9-4.25,2.95.02,5.08,2.02,4.96,4.67Z"/></svg>
